<svg xmlns="http://www.w3.org/2000/svg" viewBox="0 0 120 120" role="img" aria-labelledby="headsetTitle">
  <title id="headsetTitle">Cyber headset illustration</title>
  <path d="M30 60a30 30 0 0 1 60 0v16a14 14 0 0 1-14 14H44a14 14 0 0 1-14-14V60z" fill="#0f172a" stroke="#38bdf8" stroke-width="5"/>
  <path d="M42 60a18 18 0 0 1 36 0" fill="none" stroke="#60a5fa" stroke-width="4"/>
  <path d="M28 76c0 14 0 24 0 24s8 4 18 4v-24H28z" fill="#111827" stroke="#38bdf8" stroke-width="4"/>
  <path d="M92 76c0 14 0 24 0 24s-8 4-18 4v-24h18z" fill="#111827" stroke="#38bdf8" stroke-width="4"/>
  <circle cx="60" cy="70" r="6" fill="#38bdf8"/>
  <path d="M73 74l10 4" stroke="#60a5fa" stroke-width="3" stroke-linecap="round"/>
</svg>
